<svg width="231" height="44" viewBox="0 0 231 44" fill="none" xmlns="http://www.w3.org/2000/svg">
<path d="M59.9989 35.2853C59.9712 34.6184 59.5157 34.0494 58.8658 33.8691C54.2617 32.5908 51.4902 30.8063 49.976 29.5342C49.457 29.0981 48.9914 28.645 48.5924 28.1879L48.083 27.6044L48.5092 26.9591L55.2935 16.6851C55.672 16.1119 55.6256 15.3754 55.1779 14.8529C54.8816 14.5069 54.4486 14.3087 53.9898 14.3087C53.7751 14.3087 53.5659 14.352 53.3676 14.4375C49.6553 16.0397 45.1065 16.8869 40.2125 16.8872C39.3612 16.8872 38.4909 16.861 37.6264 16.8096L36.8132 16.7612L36.6682 15.9693C35.9027 11.7832 33.9431 8.59929 30.8439 6.50587C27.6828 4.37071 23.2493 3.28815 17.6666 3.28815C14.4632 3.28815 11.5364 4.03419 9.64548 4.65986L8.38766 5.07603L8.28241 3.76963C8.11235 1.65573 6.29612 0 4.14782 0C1.86081 0 0 1.83833 0 4.0977C0 5.47018 0.697351 6.74815 1.86548 7.51621L2.23515 7.75926L2.31215 8.19131L7.7463 38.636C7.87774 39.3718 8.52169 39.9058 9.27789 39.9058H11.3518C11.8127 39.9058 12.2469 39.7057 12.543 39.3569C12.8396 39.0078 12.9635 38.5507 12.8834 38.1023L11.4417 30.0247L11.3106 29.2899L11.9781 28.9411C12.7784 28.5231 17.0449 26.4381 22.478 26.4381C23.2589 26.4381 24.0402 26.4819 24.8003 26.5682L25.5689 26.6556L25.7032 27.4083L26.9911 34.6238C27.2579 35.944 28.1937 36.7764 28.9821 37.1152C29.6755 37.4141 35.9017 40 43.6788 40C49.4528 40 54.4484 38.4567 58.9869 36.7889C59.6199 36.5561 60.0264 35.952 59.9987 35.2856L59.9989 35.2853Z" fill="#283841"></path>
<path fill-rule="evenodd" clip-rule="evenodd" d="M18.7806 17.3967C24.6786 17.0106 32.1518 17.9481 37.4453 24.073C37.9129 24.6141 37.5883 24.8899 38.0193 25.5146L38.0193 26.3423L37.244 26.8643C32.4866 19.9692 25.0534 18.8444 18.9077 19.2462C16.196 19.4416 13.8133 20.0609 12.1061 20.6336C11.2536 20.9196 10.5736 21.1926 10.11 21.3925C9.87834 21.4924 9.70101 21.5739 9.58355 21.6294C9.52483 21.6572 9.4811 21.6784 9.45306 21.6922C9.43904 21.6991 9.42894 21.7042 9.42286 21.7072L9.41639 21.7105C9.41639 21.7105 9.41672 21.7103 8.98585 20.887C8.55498 20.0637 8.55541 20.0634 8.55541 20.0634L8.55728 20.0625L8.56113 20.0605L8.57346 20.0543C8.58373 20.0492 8.59807 20.042 8.61641 20.033C8.65309 20.015 8.70574 19.9894 8.77369 19.9573C8.90957 19.8931 9.1067 19.8026 9.35952 19.6936C9.86496 19.4757 10.5942 19.1832 11.5027 18.8784C13.3167 18.2698 15.8612 17.6067 18.7745 17.3972L18.7775 17.3969L18.7806 17.3967Z" fill="#283841"></path>
<path fill-rule="evenodd" clip-rule="evenodd" d="M18.0991 10.6465C24.4913 10.4593 32.5051 11.5823 36.7117 18.5463C37.1702 19.3053 36.5486 19.685 36.9095 20.5886L37.0717 21.3774L36.1991 21.7177C32.9999 13.71 25.1118 12.296 18.1573 12.4993C15.3689 12.5969 12.8467 13.1955 11.0155 13.7742C10.1017 14.063 9.36544 14.3451 8.8607 14.5535C8.60846 14.6576 8.41444 14.7432 8.28542 14.8018C8.22092 14.8311 8.1727 14.8536 8.14161 14.8683C8.12606 14.8757 8.1148 14.8811 8.10793 14.8844L8.10094 14.8878L8.10029 14.8881C8.10029 14.8881 8.10061 14.888 7.68266 14.0582C7.2647 13.2284 7.26514 13.2282 7.26514 13.2282L7.26708 13.2272L7.27115 13.2252L7.28438 13.2188C7.29544 13.2135 7.31097 13.206 7.33085 13.1966C7.37062 13.1778 7.42783 13.1511 7.50165 13.1176C7.64925 13.0505 7.86336 12.9562 8.13713 12.8431C8.68439 12.6172 9.47162 12.3159 10.4438 12.0086C12.3841 11.3955 15.083 10.7517 18.0937 10.6466L18.0964 10.6465L18.0991 10.6465Z" fill="#283841"></path>
<path d="M5.612 6.21108C6.29302 5.74957 6.73994 4.97511 6.73994 4.09769C6.73994 2.68321 5.57933 1.53662 4.14756 1.53662C2.71579 1.53662 1.55518 2.68321 1.55518 4.09769C1.55518 5.3293 2.43529 6.35808 3.60808 6.60318L9.27789 38.3688H11.3518L5.612 6.21108Z" fill="white"></path>
<path d="M8.33623 12.7617L7.3488 7.22944C7.3488 7.22944 12.0789 4.82434 17.666 4.82434C24.9249 4.82434 33.4474 6.50542 35.1672 16.4126C35.1681 16.4183 35.1691 16.424 35.1701 16.4297C30.7382 11.3484 23.778 10.4803 18.098 10.6466L18.0954 10.6467L18.0927 10.6468C15.082 10.7518 12.3831 11.3956 10.4428 12.0088C9.58342 12.2803 8.86857 12.5473 8.33623 12.7617Z" fill="white"></path>
<path d="M8.67022 14.6329L9.55833 19.6087C10.049 19.4025 10.7067 19.1452 11.5017 18.8785C13.3157 18.27 15.8602 17.6068 18.7735 17.3973L18.7765 17.3971L18.7796 17.3969C24.2679 17.0376 31.1203 17.8244 36.311 22.8708C36.2195 22.3615 36.1267 21.8435 36.0332 21.3205C32.7346 13.6632 24.9941 12.2996 18.1563 12.4994C15.3679 12.597 12.8457 13.1956 11.0145 13.7743C10.1007 14.0631 9.36442 14.3452 8.85968 14.5536C8.79233 14.5814 8.72914 14.6079 8.67022 14.6329Z" fill="white"></path>
<path d="M36.9592 26.4643C32.1937 19.9257 24.9315 18.8524 18.9067 19.2463C16.195 19.4417 13.8123 20.061 12.1051 20.6338C11.2526 20.9198 10.5726 21.1928 10.109 21.3927C10.031 21.4263 9.95909 21.4579 9.89359 21.4871L11.0054 27.7159C11.0054 27.7159 25.523 19.4239 37.8257 31.3073C37.6659 30.3734 37.3575 28.6675 36.9774 26.5647C36.9714 26.5313 36.9653 26.4979 36.9592 26.4643Z" fill="white"></path>
<path d="M29.6262 35.7161C29.6262 35.7161 35.8487 38.4631 43.679 38.4631C48.9556 38.4631 53.6079 37.1257 58.4447 35.3483C54.8511 34.3508 52.2615 33.0514 50.4204 31.8002C46.823 32.592 43.1833 32.7427 39.5519 32.3186C39.6303 32.7702 39.7082 33.2219 39.7855 33.6737L29.6262 35.7161Z" fill="white"></path>
<path d="M39.2286 30.4713C42.3474 30.8868 45.4635 30.856 48.5462 30.3375C46.8102 28.7708 46.2605 27.5515 46.2605 27.5515L48.2444 24.5471C44.2363 25.488 40.8195 25.3947 38.2993 25.2685C38.6114 27.0023 38.9228 28.7363 39.2286 30.4713Z" fill="white"></path>
<path d="M37.9731 23.4564C40.9025 23.609 44.9374 23.7812 49.7422 22.2786L53.99 15.8456C48.7912 18.0893 42.6838 18.7073 37.0552 18.3127C37.3572 20.0279 37.6647 21.7423 37.9731 23.4564Z" fill="white"></path>
<path d="M142.45 19.3563V37.8242H145.114V19.3563H142.45Z" fill="#283841"></path>
<path d="M142.378 16.1522C142.69 16.4163 143.158 16.5482 143.782 16.5482C144.382 16.5482 144.838 16.4163 145.15 16.1522C145.462 15.8883 145.618 15.5043 145.618 15.0002C145.618 14.4962 145.462 14.1123 145.15 13.8483C144.838 13.5842 144.37 13.4523 143.746 13.4523C143.146 13.4523 142.69 13.5842 142.378 13.8483C142.066 14.1123 141.91 14.4843 141.91 14.9642C141.91 15.4683 142.066 15.8643 142.378 16.1522Z" fill="#283841"></path>
<path fill-rule="evenodd" clip-rule="evenodd" d="M148.98 43.0083L149.016 28.1403L148.98 19.3563H151.536L151.104 25.0443H151.464C151.776 23.6042 152.232 22.4282 152.832 21.5162C153.432 20.6042 154.152 19.9323 154.992 19.5002C155.856 19.0682 156.828 18.8523 157.908 18.8523C159.372 18.8523 160.656 19.2242 161.76 19.9683C162.888 20.6882 163.764 21.7683 164.388 23.2083C165.012 24.6483 165.324 26.4122 165.324 28.5002C165.324 30.5883 165.012 32.3643 164.388 33.8282C163.788 35.2922 162.948 36.4083 161.868 37.1763C160.788 37.9203 159.528 38.2922 158.088 38.2922C156.768 38.2922 155.652 37.9923 154.74 37.3922C153.828 36.7922 153.096 35.9642 152.544 34.9083C152.016 33.8282 151.644 32.6042 151.428 31.2363H150.996C151.14 32.2443 151.26 33.1803 151.356 34.0443C151.452 34.8843 151.524 35.6643 151.572 36.3843C151.62 37.1042 151.644 37.7762 151.644 38.4003V43.0083H148.98ZM157.476 35.8442C158.556 35.8442 159.468 35.5563 160.212 34.9802C160.98 34.3802 161.568 33.5403 161.976 32.4603C162.408 31.3563 162.624 30.0243 162.624 28.4642C162.624 27.0002 162.432 25.7402 162.048 24.6843C161.664 23.6042 161.088 22.7762 160.32 22.2003C159.576 21.6002 158.64 21.3003 157.512 21.3003C156.528 21.3003 155.664 21.5283 154.92 21.9843C154.2 22.4163 153.6 22.9802 153.12 23.6763C152.664 24.3483 152.316 25.0682 152.076 25.8363C151.836 26.6042 151.716 27.3242 151.716 27.9962V28.3922C151.716 28.8003 151.776 29.3282 151.896 29.9763C152.016 30.6002 152.208 31.2483 152.472 31.9203C152.736 32.5923 153.084 33.2283 153.516 33.8282C153.972 34.4282 154.524 34.9203 155.172 35.3043C155.844 35.6643 156.612 35.8442 157.476 35.8442Z" fill="#283841"></path>
<path d="M172.333 37.8962C173.317 38.1603 174.409 38.2922 175.609 38.2922C177.145 38.2922 178.477 38.0883 179.605 37.6803C180.733 37.2483 181.609 36.6362 182.233 35.8442C182.857 35.0522 183.169 34.0923 183.169 32.9642C183.169 31.9323 182.953 31.0923 182.521 30.4442C182.113 29.7963 181.561 29.2803 180.865 28.8962C180.169 28.5123 179.389 28.2242 178.525 28.0322C177.685 27.8163 176.833 27.6243 175.969 27.4563C174.985 27.2883 174.085 27.0963 173.269 26.8802C172.453 26.6643 171.805 26.3523 171.325 25.9442C170.845 25.5123 170.605 24.9122 170.605 24.1443C170.605 23.2083 171.001 22.4763 171.793 21.9482C172.609 21.4203 173.677 21.1562 174.997 21.1562C175.981 21.1562 176.845 21.3123 177.589 21.6243C178.357 21.9363 178.945 22.4282 179.353 23.1002C179.785 23.7483 179.977 24.5883 179.929 25.6202L182.341 25.1882C182.389 23.7722 182.101 22.5963 181.477 21.6603C180.853 20.7242 179.989 20.0283 178.885 19.5723C177.781 19.0923 176.533 18.8523 175.141 18.8523C173.701 18.8523 172.441 19.0803 171.361 19.5363C170.305 19.9923 169.489 20.6283 168.913 21.4442C168.337 22.2603 168.049 23.2202 168.049 24.3242C168.049 25.3082 168.241 26.1123 168.625 26.7363C169.033 27.3602 169.573 27.8643 170.245 28.2483C170.941 28.6083 171.721 28.9083 172.585 29.1483C173.449 29.3643 174.325 29.5563 175.213 29.7242C176.221 29.9163 177.133 30.1323 177.949 30.3723C178.765 30.5883 179.401 30.9003 179.857 31.3082C180.337 31.7163 180.577 32.3043 180.577 33.0723C180.577 33.9603 180.157 34.6803 179.317 35.2323C178.477 35.7603 177.277 36.0243 175.717 36.0243C174.589 36.0243 173.593 35.8683 172.729 35.5563C171.889 35.2202 171.253 34.7042 170.821 34.0083C170.389 33.3123 170.221 32.3762 170.317 31.2003L167.833 31.5243C167.761 32.7003 167.905 33.7202 168.265 34.5842C168.625 35.4482 169.141 36.1562 169.813 36.7083C170.509 37.2363 171.349 37.6323 172.333 37.8962Z" fill="#283841"></path>
<path d="M204.89 37.8242V29.0403L204.818 19.3563H207.374L206.798 27.4923H207.194C207.41 25.5243 207.77 23.9043 208.274 22.6323C208.802 21.3602 209.486 20.4122 210.326 19.7883C211.166 19.1643 212.174 18.8523 213.35 18.8523C214.598 18.8523 215.606 19.1882 216.374 19.8602C217.142 20.5322 217.682 21.5162 217.994 22.8123C218.33 24.0842 218.438 25.6323 218.318 27.4563H218.714C218.882 25.5363 219.218 23.9403 219.722 22.6682C220.226 21.3962 220.91 20.4482 221.774 19.8242C222.638 19.1763 223.706 18.8523 224.978 18.8523C225.914 18.8523 226.742 19.0322 227.462 19.3922C228.182 19.7523 228.782 20.3043 229.262 21.0482C229.742 21.7683 230.102 22.6803 230.342 23.7843C230.582 24.8883 230.702 26.1603 230.702 27.6002V37.8242H228.038V28.0322C228.038 26.4962 227.906 25.2363 227.642 24.2523C227.402 23.2683 227.018 22.5482 226.49 22.0923C225.962 21.6123 225.278 21.3723 224.438 21.3723C223.334 21.3723 222.386 21.7803 221.594 22.5963C220.826 23.4122 220.226 24.5522 219.794 26.0162C219.386 27.4563 219.158 29.1722 219.11 31.1643V37.8242H216.482V27.9962C216.482 26.5083 216.35 25.2722 216.086 24.2883C215.822 23.3043 215.426 22.5723 214.898 22.0923C214.394 21.6123 213.722 21.3723 212.882 21.3723C211.802 21.3723 210.866 21.7803 210.074 22.5963C209.306 23.3883 208.694 24.5283 208.238 26.0162C207.806 27.4802 207.566 29.2083 207.518 31.2003V37.8242H204.89Z" fill="#283841"></path>
<path d="M192.102 38.2922C189.942 38.2922 188.346 37.5123 187.314 35.9523C186.306 34.3922 185.802 31.9923 185.802 28.7523V19.3563H188.502V28.7163C188.502 31.1882 188.826 33.0002 189.474 34.1522C190.122 35.2803 191.19 35.8442 192.678 35.8442C193.566 35.8442 194.346 35.6403 195.018 35.2323C195.69 34.8003 196.266 34.1763 196.746 33.3602C197.226 32.5443 197.598 31.5123 197.862 30.2643C198.126 29.0162 198.27 27.5643 198.294 25.9083V19.3563H200.958V28.6443L200.994 37.8242H198.474L199.05 30.3723H198.654C198.414 32.1963 198.006 33.6963 197.43 34.8723C196.878 36.0243 196.158 36.8883 195.27 37.4642C194.406 38.0162 193.35 38.2922 192.102 38.2922Z" fill="#283841"></path>
<path fill-rule="evenodd" clip-rule="evenodd" d="M130.347 38.3282C128.547 38.3282 126.951 37.9563 125.559 37.2123C124.167 36.4683 123.075 35.3643 122.283 33.9003C121.491 32.4363 121.095 30.6123 121.095 28.4282C121.095 26.1963 121.503 24.3483 122.319 22.8843C123.135 21.4203 124.239 20.3282 125.631 19.6083C127.023 18.8883 128.595 18.5283 130.347 18.5283C132.123 18.5283 133.707 18.9003 135.099 19.6443C136.491 20.3883 137.583 21.4923 138.375 22.9563C139.167 24.4203 139.563 26.2562 139.563 28.4642C139.563 30.6963 139.155 32.5443 138.339 34.0083C137.547 35.4723 136.443 36.5643 135.027 37.2843C133.635 37.9802 132.075 38.3282 130.347 38.3282ZM130.455 34.8363C131.415 34.8363 132.219 34.5963 132.867 34.1163C133.539 33.6362 134.055 32.9403 134.415 32.0283C134.775 31.0923 134.955 29.9763 134.955 28.6803C134.955 27.3123 134.763 26.1483 134.379 25.1882C134.019 24.2283 133.479 23.4843 132.759 22.9563C132.063 22.4282 131.223 22.1643 130.239 22.1643C129.279 22.1643 128.463 22.4163 127.791 22.9203C127.119 23.4003 126.603 24.1083 126.243 25.0443C125.883 25.9563 125.703 27.0603 125.703 28.3563C125.703 30.3962 126.123 31.9923 126.963 33.1443C127.803 34.2722 128.967 34.8363 130.455 34.8363Z" fill="#283841"></path>
<path fill-rule="evenodd" clip-rule="evenodd" d="M105.179 43.1522C106.427 43.4883 108.095 43.6562 110.183 43.6562C112.511 43.6562 114.431 43.4403 115.943 43.0083C117.455 42.6002 118.583 41.9642 119.327 41.1002C120.095 40.2363 120.479 39.1323 120.479 37.7883C120.479 36.5883 120.215 35.6643 119.687 35.0162C119.183 34.3442 118.547 33.8643 117.779 33.5763C117.035 33.2883 116.291 33.1202 115.547 33.0723C114.803 33.0002 114.203 32.9642 113.747 32.9642H108.275C107.915 32.9642 107.579 32.9523 107.267 32.9282C106.979 32.8802 106.739 32.8203 106.547 32.7483C106.379 32.6522 106.295 32.5083 106.295 32.3163C106.295 32.1002 106.439 31.8723 106.727 31.6323C107.039 31.3683 107.507 31.0923 108.131 30.8043C108.635 30.9003 109.103 30.9723 109.535 31.0203C109.967 31.0443 110.399 31.0563 110.831 31.0563C112.487 31.0563 113.879 30.8523 115.007 30.4442C116.159 30.0123 117.023 29.4243 117.599 28.6803C118.175 27.9122 118.463 27.0482 118.463 26.0883C118.463 25.1283 118.115 24.3242 117.419 23.6763C116.723 23.0043 115.523 22.5243 113.819 22.2363V21.8043L120.047 22.6323V18.9603H110.687C108.959 18.9603 107.483 19.2242 106.259 19.7523C105.035 20.2562 104.099 20.9763 103.451 21.9122C102.803 22.8242 102.479 23.8802 102.479 25.0803C102.479 26.4482 102.863 27.5763 103.631 28.4642C104.423 29.3282 105.539 29.8683 106.979 30.0842V30.5162C105.467 30.7083 104.387 31.0563 103.739 31.5603C103.091 32.0643 102.767 32.6403 102.767 33.2883C102.767 33.9843 103.103 34.5123 103.775 34.8723C104.471 35.2083 105.467 35.3762 106.763 35.3762V35.7722C105.083 36.0123 103.811 36.4683 102.947 37.1403C102.107 37.8123 101.687 38.6763 101.687 39.7323C101.687 40.5243 101.951 41.2083 102.479 41.7843C103.031 42.3843 103.931 42.8403 105.179 43.1522ZM114.035 39.4802C113.147 39.6483 111.875 39.7323 110.219 39.7323C109.283 39.7323 108.467 39.6963 107.771 39.6243C107.099 39.5522 106.571 39.3962 106.187 39.1562C105.803 38.9163 105.611 38.5563 105.611 38.0763C105.611 37.5963 105.815 37.1763 106.223 36.8163C106.631 36.4563 107.351 36.1202 108.383 35.8082H113.027C113.339 35.8082 113.687 35.8203 114.071 35.8442C114.455 35.8683 114.827 35.9403 115.187 36.0603C115.571 36.1562 115.883 36.3363 116.123 36.6002C116.363 36.8403 116.483 37.2003 116.483 37.6803C116.483 38.1123 116.303 38.4843 115.943 38.7963C115.583 39.1083 114.947 39.3363 114.035 39.4802ZM113.207 27.5643C112.607 28.1403 111.755 28.4282 110.651 28.4282C109.907 28.4282 109.259 28.2963 108.707 28.0322C108.155 27.7683 107.723 27.3962 107.411 26.9163C107.123 26.4122 106.979 25.8483 106.979 25.2242C106.979 24.2643 107.303 23.4723 107.951 22.8483C108.599 22.2242 109.475 21.9122 110.579 21.9122C111.683 21.9122 112.547 22.2242 113.171 22.8483C113.819 23.4723 114.143 24.2762 114.143 25.2603C114.143 26.2202 113.831 26.9883 113.207 27.5643Z" fill="#283841"></path>
<path fill-rule="evenodd" clip-rule="evenodd" d="M91.2702 38.3282C89.4702 38.3282 87.8742 37.9563 86.4822 37.2123C85.0902 36.4683 83.9982 35.3643 83.2062 33.9003C82.4142 32.4363 82.0182 30.6123 82.0182 28.4282C82.0182 26.1963 82.4262 24.3483 83.2422 22.8843C84.0582 21.4203 85.1622 20.3282 86.5542 19.6083C87.9462 18.8883 89.5182 18.5283 91.2702 18.5283C93.0462 18.5283 94.6302 18.9003 96.0222 19.6443C97.4142 20.3883 98.5062 21.4923 99.2982 22.9563C100.09 24.4203 100.486 26.2562 100.486 28.4642C100.486 30.6963 100.078 32.5443 99.2622 34.0083C98.4702 35.4723 97.3662 36.5643 95.9502 37.2843C94.5582 37.9802 92.9982 38.3282 91.2702 38.3282ZM91.3782 34.8363C92.3382 34.8363 93.1422 34.5963 93.7902 34.1163C94.4622 33.6362 94.9782 32.9403 95.3382 32.0283C95.6982 31.0923 95.8782 29.9763 95.8782 28.6803C95.8782 27.3123 95.6862 26.1483 95.3022 25.1882C94.9422 24.2283 94.4022 23.4843 93.6822 22.9563C92.9862 22.4282 92.1462 22.1643 91.1622 22.1643C90.2022 22.1643 89.3862 22.4163 88.7142 22.9203C88.0422 23.4003 87.5262 24.1083 87.1662 25.0443C86.8062 25.9563 86.6262 27.0603 86.6262 28.3563C86.6262 30.3962 87.0462 31.9923 87.8862 33.1443C88.7262 34.2722 89.8902 34.8363 91.3782 34.8363Z" fill="#283841"></path>
<path d="M66.9648 14.0643V37.8242H81.5089V33.9003H71.5368V14.0643H66.9648Z" fill="#283841"></path>
</svg>